<?xml version="1.0" standalone="no"?>
<svg version="1.1" id="Layer_1" xmlns="http://www.w3.org/2000/svg" xmlns:xlink="http://www.w3.org/1999/xlink" x="0px" y="0px" viewBox="0 0 2000 2000" enable-background="new 0 0 2000 2000" xml:space="preserve">
<path id="color_x5F_8" fill="#F8C09C" d="M888,880c41.8-57.8,55-41.9,55-41.9c-0.9-7.6-1.6-14.5-2.1-20.8
	c7.2,5.9,18.4,12.3,32.4,11.5c-0.8,3.6-1.6,7-2.2,9.9c-3.7,16-12.6,18.5-12.6,18.5l-59,37.5C887.6,889.4,888,880,888,880z
	 M918.4,691.4c6.1,10.1,9,14.8,10.3,16.9c0,0.1,0,0.1,0,0.2c0.3,6.1,6.9,19.8,8.2,20.3s9.3-6.9,9.3-6.9l2.4,2.4l1.6-1.7
	c0.2-2.1,0.3-4.1,0.3-6.2c-0.4-1-2.2-3.1-4.3-5.3c1.4-1.4,2.5-2.7,2.4-3.4c-0.3-2.1-9.3-3.9-9.3-3.9l0,0c-1-3.1-3.9-12.4-4-13.4
	c-0.2-3.6-4.4-12.1-8-17.9c6.5-1.6,14.3-3.3,20.1-4.1c0.3-10.1,1.7-18.4,4.7-21.7c-18.7,0-43.9,10.3-45,13.2
	c-1.5,3.9,1,9.4,4.8,18.2C913.5,682.1,915.6,686.7,918.4,691.4z M1081.6,1137.1c-5,9.4-4.1,36.4-1,57.1c0.2,1.4,0.4,2.8,0.5,4.2
	c-10.5,2.8-25.2,3.1-25.2,3.1c-7.2,0.6-7.2-3.3-8.8-7.2C1045.4,1190.7,1077.1,1143.7,1081.6,1137.1z M1059.1,1200.5
	c-0.7,0.3-1.3,0.5-1.9,0.7C1057.8,1201.1,1058.5,1200.8,1059.1,1200.5z M881.9,999.3c1.6,3.9,1.6,7.8,8.8,7.2c0,0,14.8-0.4,25.3-3.2
	c-0.1-1.4-0.3-2.8-0.5-4.2c-3.1-21.2-4-49.2,1.5-57.8C917,941.3,880.3,995.4,881.9,999.3z M998.2,656.8c0,0,0.7-4.5,0.7-6
	c4.2,1.4,9.2,2.4,12.8,1.1c7.4-2.6,7.1-12,7.1-12v-13.8c0,0,2-0.9,3.1-5.1c0.7-2.8-0.6-9.9-1.5-14.4c-0.2,3.5-0.8,6.9-1.4,8.4
	c-1.5,3.5-4.5,5.4-4.5,5.4c1.2,18.6-2.6,15.8-2.6,15.8c1.1-5.7-0.2-9.8-5.1-10.3c-4.9-0.5-3.7,11.2-3.7,11.2s0.8,9.2-7.8,10.4
	c-3.6-2.5-8.8-5.3-10.7-5c-3.1,0.4-6.1,6.5-6.1,6.5C985.5,648.5,998.2,656.8,998.2,656.8z M1018.4,711.6c7-24.8,0.6-31.3,0.6-31.3
	l-4.8-6.4c-15.5,5.5-23.1,49.2-23.1,49.2s-4,17.2,3.3,21.5s54.4-7.4,54.4-7.4s0,0,0-0.1c6.7,0.2,22.8-5.1,23.5-6.2
	c0.8-1.2-5-10.5-5-10.5l2.8-1.9l-2-2.9c0,0-3.5,0-4.9-0.5s-17.7,7.8-17.7,7.8c-0.9,0.9-1.5,1.8-2,2.7c-7.2-0.6-24.7-1.8-32.3,0.9
	C1013.1,724,1016.2,719.2,1018.4,711.6z M964.4,944.5c4.2,1.4,9.2,2.4,12.8,1.1c7.4-2.6,7.1-12,7.1-12v-13.8c0,0,2-0.9,3.1-5.1
	c0.7-2.8-0.6-9.9-1.5-14.4c-0.2,2.6-0.5,5.1-1,6.9v0.1c-0.1,0.3-0.1,0.5-0.2,0.7v0.1c-0.1,0.2-0.1,0.4-0.2,0.6
	c-1.5,3.5-4.5,5.4-4.5,5.4c1.2,18.6-2.6,15.8-2.6,15.8c1.1-5.7-0.2-9.8-5.1-10.3s-3.7,11.2-3.7,11.2s0,0,0,0.1l0,0
	c0,0.1,0,0.2,0,0.3l0,0c0,0.1,0,0.3,0,0.5l0,0c-0.1,2.6-1,10-10.3,9.6c-3.6-0.1-7.5-1.3-11.2-3.2c-1.8,1.9-3,4.5-3,4.5
	c7.1-0.5,19.7,7.8,19.7,7.8S964.4,946,964.4,944.5z M1129.4,1139.5c4.2,1.4,9.2,2.4,12.8,1.1c7.4-2.6,7.1-12,7.1-12v-13.8
	c0,0,2-0.9,3.1-5.1c0.7-2.8-0.6-9.9-1.5-14.4c-0.2,3.5-0.8,6.9-1.4,8.4c-1.5,3.5-4.5,5.4-4.5,5.4c1.2,18.6-2.6,15.8-2.6,15.8
	c1.1-5.7-0.2-9.8-5.1-10.3s-3.7,11.2-3.7,11.2s0.8,9.2-7.8,10.4c-3.6-2.5-8.8-5.3-10.7-5c-3.1,0.4-6.1,6.5-6.1,6.5
	c7.1-0.5,19.7,7.8,19.7,7.8S1129.5,1141,1129.4,1139.5z M1152.1,1275.2c1.4,0,6.3-9.7,6.3-9.7l3.1,1.4l1.4-3.2c0,0-1.8-2.9-2.2-4.5
	c-0.3-1.5-16-10.9-16-10.9l-4.6-31.1c0,0,5.6-5.3,8.9-16.9c7-24.8,0.6-31.3,0.6-31.3l-4.8-6.4c-15.5,5.5-23.1,49.2-23.1,49.2
	s6.5,36.7,11.9,44.6C1133.7,1260.9,1150.7,1275.2,1152.1,1275.2z M1159.6,1321.7c0-0.1-0.1-0.2-0.1-0.3c0-0.6,0.1-1.2,0.1-1.8
	c-9.3,4.7-23.1,5-31.8,4.5c2.4,4.2,4,6.9,4,6.9c1.4,8.3,5.7,25.5,6.5,28.6c1,4.1,16.2,27.9,20.3,27.9c4.1,0,13.3,0.2,13.3-7.4
	C1171.9,1380.2,1159.7,1324.6,1159.6,1321.7z M1071.5,1306c0.5,6.3,1.2,13.2,2.1,20.8c0,0-13.1-15.9-55,41.9c0,0-0.4,9.4,11.3,14.7
	l59-37.5c0,0,8.9-2.5,12.6-18.5c0.7-2.9,1.4-6.3,2.2-9.9C1089.9,1318.3,1078.7,1311.8,1071.5,1306z M979.6,1053.2l-4.6-31.1
	c0,0,5.6-5.3,8.9-16.9c7-24.8,0.6-31.3,0.6-31.3l-4.8-6.4c-15.5,5.5-23.1,49.2-23.1,49.2s6.5,36.7,11.9,44.6
	c0,4.6,17.1,18.9,18.5,18.9s6.3-9.7,6.3-9.7l3.1,1.4l1.4-3.2c0,0-1.8-2.9-2.2-4.5C995.3,1062.6,979.6,1053.2,979.6,1053.2z
	 M1029.4,897.6c4.1,0,11.8,1.5,11.8-6.1c0,0-12.2-55.6-12.2-58.5c0-0.1-0.1-0.2-0.1-0.3c0-0.6,0.1-1.2,0.1-1.8
	c-9.3,4.7-23.1,5-31.8,4.5c2.4,4.2,4,6.9,4,6.9c1.4,8.3,3.2,15.1,3.9,18.1C1006.1,864.6,1025.3,897.6,1029.4,897.6z"></path>
<path id="color_x5F_7" fill="#A0CEE4" d="M1910.6,1083.1l-1191,687.7l-595-343.5v-62.7l595.1,343.6l1191-687.8v62.7H1910.6z
	 M1106.8,1378.4l29.2,11.7c19.4,7.8,21.1,34.5,2.9,44.8l-83.7,47c-6.3,3.5-13.8,4.2-20.6,1.7l-29.1-10.5c-19.9-7.2-22.3-34.4-4-44.9
	l83.6-48.2C1091.7,1376.1,1099.7,1375.5,1106.8,1378.4z M918.1,1188.1l-83.6,48.2c-18.3,10.6-15.9,37.8,4,44.9l29.1,10.5
	c6.8,2.5,14.3,1.8,20.6-1.7l83.7-47c18.2-10.2,16.5-37-2.9-44.8l-29.2-11.7C932.7,1183.7,924.7,1184.3,918.1,1188.1z M1016.6,918.8
	l-29.2-11.7c-0.1,0-0.2-0.1-0.3-0.1c0.4,3.1,0.7,6.1,0.3,7.7c-1.1,4.2-3.1,5.1-3.1,5.1v13.8c0,0,0.3,9.4-7.1,12
	c-3.6,1.3-8.6,0.3-12.8-1.1c0,1.5-0.7,6-0.7,6s9.4,9.1,16,17l0,0l0,0c1.9,2.3,3.6,4.6,4.8,6.4l-4.8-6.4l0,0l4.8,6.4
	c0,0,1.9,2,2.5,7.9l32.5-18.2C1037.7,953.3,1036,926.5,1016.6,918.8z M915.8,1001.2c0.1,0.7,0.1,1.4,0.2,2.1
	c-5.7,1.5-12.8,2.3-18,2.7l17.2,6.2c0.3,0.1,0.6,0.2,0.9,0.3C916.3,1008.6,916.2,1004.8,915.8,1001.2z M881.9,999.3
	c-1.6-3.9,35.1-58,35.1-58c0.2-0.4,0.5-0.7,0.8-1c0,0,12.9-0.8,21.3,1c1.4,0.3,3.1,0.8,4.9,1.4c0,0,1.3-2.6,3-4.5
	c-5.6-2.8-10.7-7-13.2-11.2L882,956.9c-17,9.8-16.1,34,0.1,43.1C882.1,999.7,882,999.5,881.9,999.3z"></path>
<path id="color_x5F_6" fill="#F1F4FA" d="M899.3,894.7c-2.8,4.9-12.1,7.7-12.1,7.7s-8.5-14.9-4.9-18.4c1.7-1.7,3.9-3.1,5.7-4
	C888,880,887.6,889.4,899.3,894.7z M1171.6,1378.8c0.2,0.9,0.3,1.4,0.3,1.4c0,6.6-7,7.3-11.5,7.4c0.4,1.6,1.3,4.3,2.8,5.2
	c2.2,1.2,12.8,0.3,14-5.2C1178,1383.7,1174,1380.4,1171.6,1378.8z M1030,1383.3c-2.8,4.9-12.1,7.7-12.1,7.7c1.8-1.8-1-15.4-1-15.4
	s-0.6,0-4.7-1.5c0.1-0.6,0.4-1.1,0.8-1.5c1.7-1.7,3.9-3.1,5.7-4C1018.7,1368.7,1018.3,1378.1,1030,1383.3z M1160.4,1387.5
	c0.2,0.6,0.4,1.4,0.7,2.1v0.1c0.1,0.2,0.2,0.4,0.2,0.6c0,0.1,0.1,0.1,0.1,0.2c0.1,0.2,0.2,0.4,0.3,0.6c0,0,0,0.1,0.1,0.1
	c0.1,0.2,0.2,0.3,0.3,0.5c0,0,0,0.1,0.1,0.1c0.1,0.2,0.3,0.3,0.4,0.5l0.1,0.1c0.2,0.1,0.3,0.3,0.5,0.4c2.2,1.2,12.8,0.3,14-5.2
	c0.1-0.3,0.1-0.5,0.1-0.8c0-0.1,0-0.2,0-0.2c0-0.2,0-0.3,0-0.5c0-0.1,0-0.2,0-0.3c0-0.2-0.1-0.3-0.1-0.5c0-0.1,0-0.2-0.1-0.3
	c0-0.2-0.1-0.3-0.2-0.5c0-0.1-0.1-0.2-0.1-0.2c-0.1-0.2-0.2-0.3-0.2-0.5c0-0.1-0.1-0.1-0.1-0.2c-0.4-0.7-0.9-1.4-1.4-2
	c-1.1-1.2-2.4-2.2-3.4-2.8c0.2,0.9,0.3,1.4,0.3,1.4c0,0.8-0.1,1.6-0.3,2.2l0,0l0,0c-0.1,0.4-0.3,0.7-0.4,1c-0.1,0.1-0.1,0.2-0.2,0.3
	c-0.1,0.2-0.3,0.4-0.4,0.6c-0.1,0.1-0.2,0.2-0.2,0.3c-0.2,0.2-0.3,0.4-0.5,0.5c-0.1,0.1-0.2,0.1-0.2,0.2c-0.3,0.2-0.5,0.4-0.8,0.6
	l0,0c-0.3,0.2-0.6,0.3-1,0.5c-0.1,0-0.2,0.1-0.3,0.1c-0.3,0.1-0.5,0.2-0.8,0.3c-0.1,0-0.2,0.1-0.3,0.1c-0.3,0.1-0.5,0.1-0.8,0.2
	c-0.1,0-0.2,0-0.3,0.1c-0.4,0.1-0.7,0.1-1.1,0.2l0,0l0,0C1162.8,1387.5,1161.5,1387.5,1160.4,1387.5z M888,880c-1.8,1-4,2.3-5.7,4
	c-3.6,3.5,4.9,18.4,4.9,18.4s9.4-2.8,12.1-7.7C887.6,889.4,888,880,888,880z M1046.5,898.9c-1.2,5.4-11.8,6.4-14,5.2
	s-3.1-6.5-3.1-6.5l0,0l0,0c4.1,0,11.8,1.5,11.8-6.1c0,0-0.1-0.5-0.3-1.4C1043.3,891.7,1047.4,895,1046.5,898.9z M1012.1,1192.5
	c-1.2,5.4-11.8,6.4-14,5.2c-1.5-0.8-2.4-3.6-2.8-5.2c4.5-0.1,11.5-0.8,11.5-7.4c0,0-0.1-0.5-0.3-1.4
	C1008.9,1185.3,1013,1188.6,1012.1,1192.5z M850.6,1202.3c-3.8,2.8-8.9,4.3-8.9,4.3l0,0l0,0c1.8-1.8-1-15.4-1-15.4s-0.6,0-4.7-1.5
	c0.1-0.6,0.4-1.1,0.8-1.5c1.7-1.7,3.9-3.1,5.7-4c0.2-0.1,0.4-0.2,0.6-0.3C843,1188.2,843.4,1197.7,850.6,1202.3z"></path>
<path id="color_x5F_5" fill="#FFD2BB" d="M925,1068c-0.4-0.1-0.8-0.2-1.1-0.3C924.2,1067.8,924.6,1067.9,925,1068z M927.8,1068.6
	c-0.5-0.1-1-0.2-1.4-0.3C926.9,1068.4,927.3,1068.5,927.8,1068.6z M926.4,1068.3c-0.4-0.1-0.9-0.2-1.3-0.3
	C925.5,1068.1,926,1068.3,926.4,1068.3z M935.1,1069.6c-0.6-0.1-1.1-0.1-1.7-0.2C933.9,1069.5,934.5,1069.5,935.1,1069.6z
	 M931.5,1069.2c0.5,0.1,1.1,0.1,1.6,0.2C932.6,1069.3,932,1069.3,931.5,1069.2z M931.2,1069.1c-0.5-0.1-1-0.1-1.5-0.2
	C930.2,1069,930.7,1069.1,931.2,1069.1z M936.9,1069.7c-0.6,0-1.2-0.1-1.8-0.2C935.7,1069.6,936.3,1069.7,936.9,1069.7z
	 M929.5,1068.9c-0.5-0.1-1-0.2-1.4-0.2C928.5,1068.7,929,1068.8,929.5,1068.9z M845.7,1196.9L845.7,1196.9L845.7,1196.9z
	 M963.4,1130.2c-4.3-7.3-12.1-20.1-19.8-29.7c-2.3,10.4-5.1,23.4-7.1,31.8c-3.7,16-12.6,18.5-12.6,18.5l-13.6,10.1L963.4,1130.2z
	 M923.7,1067.6c-0.3-0.1-0.7-0.2-1-0.3C923,1067.4,923.3,1067.5,923.7,1067.6z M845,1195.5c0,0.1,0.1,0.2,0.1,0.2
	C845.1,1195.6,845,1195.6,845,1195.5z M922.5,1067.2c-0.3-0.1-0.6-0.2-0.8-0.4C922,1067,922.2,1067.1,922.5,1067.2z M921.6,1066.8
	c-0.3-0.1-0.5-0.3-0.7-0.4C921.1,1066.5,921.3,1066.7,921.6,1066.8z M917.1,1063.4c-0.2-0.2-0.5-0.4-0.7-0.6
	C916.7,1063,916.9,1063.2,917.1,1063.4z M968.6,1061.7c0-0.1,0-0.3,0-0.4C968.6,1061.4,968.6,1061.5,968.6,1061.7z M958.2,1070.4
	c-0.6,0-1.2,0-1.8,0C957.1,1070.4,957.7,1070.4,958.2,1070.4z M954.5,1070.4c0.6,0,1.2,0,1.7,0
	C955.7,1070.4,955.1,1070.4,954.5,1070.4z M952.4,1070.4c0.6,0,1.2,0,1.8,0C953.5,1070.4,953,1070.4,952.4,1070.4z M974.9,1070.1
	c-0.7,0-1.7,0.1-2.9,0.1C973.2,1070.2,974.2,1070.1,974.9,1070.1z M844.1,1193.1c0-0.1,0-0.2-0.1-0.2
	C844.1,1192.9,844.1,1193,844.1,1193.1z M937.2,1069.8c0.6,0,1.2,0.1,1.8,0.1C938.4,1069.8,937.8,1069.8,937.2,1069.8z
	 M969.1,1062.9c0.1,0.1,0.1,0.3,0.2,0.4C969.2,1063.1,969.1,1063,969.1,1062.9z M969,1062.7c-0.1-0.1-0.1-0.2-0.1-0.3
	C968.9,1062.4,968.9,1062.6,969,1062.7z M950.1,1070.3c0.6,0,1.2,0,1.8,0C951.3,1070.4,950.7,1070.3,950.1,1070.3z M945.5,1070.2
	c-0.6,0-1.2,0-1.9-0.1C944.3,1070.2,944.9,1070.2,945.5,1070.2z M939.4,1069.9c0.6,0,1.2,0.1,1.8,0.1
	C940.5,1070,939.9,1069.9,939.4,1069.9z M943.3,1070.1c-0.6,0-1.2-0.1-1.8-0.1C942.1,1070.1,942.7,1070.1,943.3,1070.1z
	 M947.9,1070.3c0.6,0,1.2,0,1.8,0C949.1,1070.3,948.5,1070.3,947.9,1070.3z M945.7,1070.2c0.6,0,1.3,0,1.9,0.1
	C946.9,1070.3,946.3,1070.2,945.7,1070.2z M968.7,1061.8c0,0.1,0.1,0.2,0.1,0.3C968.7,1062,968.7,1061.9,968.7,1061.8z M834.1,1196
	c0.1,0.9,0.2,1.7,0.2,2.5C834.3,1197.7,834.2,1196.9,834.1,1196z M1108.7,1295.5L1108.7,1295.5l-0.2,1.1l0.5-0.3L1108.7,1295.5z
	 M1024.5,1359.7l0.6,0.3c0.3-0.4,0.6-0.8,0.9-1.2L1024.5,1359.7z M836.4,1189.9c-0.1,0-0.2-0.1-0.3-0.1
	C836.2,1189.9,836.3,1189.9,836.4,1189.9z M837.2,1190.2c-0.1,0-0.2-0.1-0.4-0.1C837,1190.2,837.1,1190.2,837.2,1190.2z
	 M833.1,1191.6c-0.2-0.5-0.4-1-0.6-1.5C832.7,1190.6,833,1191.1,833.1,1191.6z M1003.8,1371.8l-0.1-0.1l-0.1,0.1
	C1003.6,1371.8,1003.7,1371.8,1003.8,1371.8z M1149.9,1102.3C1149.9,1102.2,1149.9,1102.2,1149.9,1102.3
	C1149.9,1102.2,1149.9,1102.2,1149.9,1102.3z M1012,1352.4l60.6-35c-0.4-4-0.8-7.9-1.1-11.5c-5.7-4.6-8.8-8.9-8.8-8.9
	c-0.3-8.7,7.5-36.6,10.1-45.8c0.4-1.7,0.7-2.6,0.8-2.9v-0.1c0,0,8-25.1,7.6-46.2l-164.9,95.2L1012,1352.4z M1149.7,1103.1
	C1149.7,1103.1,1149.7,1103,1149.7,1103.1C1149.7,1103,1149.7,1103.1,1149.7,1103.1z M1006.8,1185.1c0,0.4,0,0.9-0.1,1.3
	C1006.8,1186,1006.8,1185.6,1006.8,1185.1z M837.9,1190.5c-0.1,0-0.2-0.1-0.3-0.1C837.7,1190.4,837.8,1190.4,837.9,1190.5z
	 M994.6,1126.7l550.3-317.6l95.8,55.3l-502.8,290.3c-4.8-5.1-9.1-9.3-9.1-9.3s-16.2-7.4-24.6-9.2s-21.3-1-21.3-1
	c-0.4,0.5-0.8,1.1-1.2,1.8c-4.5,6.6-36.1,53.6-34.6,57.3c1.6,3.9,1.6,7.8,8.8,7.2c0,0,0.4,0,1.2,0L903.6,1290l-7.6-4.4l76-42.6
	c18.2-10.2,16.5-37-2.9-44.8l-29.2-11.7c-7.1-2.8-15.1-2.3-21.7,1.5l-83.6,48.2c-3.9,2.3-6.9,5.3-9,8.8l-1.6-0.9
	c1.4-1.2,2.8-3,4.2-5.5c-0.5-4.1-1.1-9-1.7-12.8c0.5,3.8,1.1,8.7,1.7,12.8c0.5-0.8,0.9-1.6,1.4-2.4c4.3-8.2,6.8-14.5,8.4-19.1
	l130.9-75.6c1.5,8.7,3.6,20.5,4.3,23.1c1,4.1,16.2,27.9,20.3,27.9c0.8,0,1.7,0,2.7,0c-0.3,0-0.6,0-0.9,0c0.2,0.6,0.4,1.4,0.7,2.1
	l0,0c-0.6,0.5-1,0.8-1,0.8s-2.5,8.2-2.6,10.2c-0.2,2,3.7,7.7,11.2,6.2s13.6-8.3,19.9-9.2c6.3-0.9,16.8-9.7,14.8-14.8
	c-2-5.1-5.1-7.2-5.1-7.2s-21.2,7.9-23.2,6.1c-1.1-1.2-2.4-2.2-3.4-2.8c0.2,0.9,0.3,1.4,0.3,1.4S994.8,1130.3,994.6,1126.7z
	 M1097.3,1117.4c0.4,5.4,7.1,12,14.8,15.8c-1.8,1.9-3,4.5-3,4.5c7.1-0.5,19.7,7.8,19.7,7.8s0.7-4.5,0.7-6c4.2,1.4,9.2,2.4,12.8,1.1
	c7.4-2.6,7.1-12,7.1-12v-13.8c0,0,2-0.9,3.1-5.1c0.7-2.8-0.6-9.9-1.5-14.4c0.3-4.8,0-10-1.4-11.3c0,0-12.5-13.7-31.4-6.5
	S1096.7,1109.4,1097.3,1117.4z M1057.6,1201.1L1057.6,1201.1c-0.1,0-0.3,0.1-0.4,0.1C1057.4,1201.2,1057.5,1201.1,1057.6,1201.1z
	 M1158.9,1326.4v0.1C1158.9,1326.5,1158.9,1326.5,1158.9,1326.4z M843.3,1189.1c0,0.1,0,0.1,0,0.2
	C843.4,1189.2,843.4,1189.2,843.3,1189.1z M838.2,1190.6c0.1,0,0.2,0.1,0.3,0.1C838.4,1190.6,838.3,1190.6,838.2,1190.6z
	 M840.7,1191.3L840.7,1191.3L840.7,1191.3z M840.6,1191.3L840.6,1191.3L840.6,1191.3z M843.6,1190.5c0-0.1,0-0.1,0-0.2
	C843.5,1190.4,843.5,1190.4,843.6,1190.5z M843.2,1187.9C843.2,1188,843.2,1188,843.2,1187.9C843.2,1188,843.2,1188,843.2,1187.9z
	 M840.5,1191.3C840.6,1191.3,840.6,1191.3,840.5,1191.3C840.6,1191.3,840.6,1191.3,840.5,1191.3z M843.8,1191.8v-0.1
	C843.8,1191.7,843.8,1191.8,843.8,1191.8z M843.2,1187c0-0.1,0-0.1,0-0.2C843.2,1186.8,843.2,1186.9,843.2,1187z M839.3,1190.9
	c0.1,0,0.1,0,0.2,0.1C839.5,1191,839.4,1190.9,839.3,1190.9z M839.1,1190.8c-0.1,0-0.2-0.1-0.3-0.1
	C838.9,1190.8,839,1190.8,839.1,1190.8z M839.7,1191c0.1,0,0.1,0,0.2,0C839.8,1191.1,839.7,1191,839.7,1191z M840,1191.1h0.1
	C840,1191.1,840,1191.1,840,1191.1z M840.5,1191.2C840.5,1191.2,840.4,1191.2,840.5,1191.2C840.4,1191.2,840.5,1191.2,840.5,1191.2z
	 M840.2,1191.2h0.1H840.2z M1158.2,1328.9c0.1-0.3,0.2-0.6,0.3-0.9C1158.4,1328.3,1158.3,1328.6,1158.2,1328.9z M999.7,1192.1
	c0.2,0,0.4-0.1,0.6-0.1C1000.1,1192.1,999.9,1192.1,999.7,1192.1z M996.6,1192.5c0.2,0,0.4,0,0.6,0
	C997,1192.4,996.8,1192.4,996.6,1192.5z M1011.4,1188.5c0,0.1,0.1,0.1,0.1,0.2C1011.5,1188.7,1011.4,1188.6,1011.4,1188.5z
	 M998.1,1197.7c-0.2-0.1-0.3-0.2-0.5-0.4C997.8,1197.5,997.9,1197.6,998.1,1197.7z M996.7,1196.2c0.1,0.2,0.2,0.3,0.3,0.5
	C996.9,1196.5,996.8,1196.4,996.7,1196.2z M997.6,1192.4c0.2,0,0.4,0,0.6-0.1C998,1192.4,997.8,1192.4,997.6,1192.4z M997.1,1196.8
	c0.1,0.2,0.3,0.3,0.4,0.5C997.4,1197.1,997.3,1196.9,997.1,1196.8z M1012,1189.9c0,0.1,0.1,0.2,0.1,0.3
	C1012,1190.1,1012,1190,1012,1189.9z M1004.7,1190c0.2-0.1,0.3-0.3,0.5-0.4C1005,1189.7,1004.9,1189.9,1004.7,1190z M996.7,1196.1
	c-0.1-0.2-0.2-0.4-0.3-0.6C996.4,1195.7,996.5,1195.9,996.7,1196.1z M1011.7,1189.2c0,0.1,0.1,0.2,0.1,0.2
	C1011.8,1189.4,1011.8,1189.3,1011.7,1189.2z M1001.4,1191.7c-0.2,0.1-0.4,0.1-0.7,0.2C1001,1191.9,1001.2,1191.8,1001.4,1191.7z
	 M1004.5,1190.3c-0.2,0.1-0.4,0.3-0.6,0.4C1004.1,1190.5,1004.3,1190.4,1004.5,1190.3z M1002.7,1191.3c0.3-0.1,0.6-0.3,0.9-0.5
	C1003.4,1191,1003.1,1191.1,1002.7,1191.3z M1001.8,1191.6c0.3-0.1,0.5-0.2,0.8-0.3C1002.3,1191.4,1002,1191.5,1001.8,1191.6z
	 M998.7,1192.3c0.2,0,0.4-0.1,0.6-0.1C999.1,1192.2,998.9,1192.3,998.7,1192.3z M860.5,1289.1l-22-7.9c-6.8-2.5-11.6-7.3-14.2-12.9
	l-37.5-21.7l-433.4,250.1l96.1,55.5L882.8,1302L860.5,1289.1z M678.7,1184.1l-433.4,250.1l95.8,55.3l433.3-250.2L678.7,1184.1z
	 M996,1194.7c0.1,0.2,0.2,0.4,0.2,0.6C996.2,1195.1,996.1,1194.9,996,1194.7z M1055.2,1481.9c-6.3,3.5-13.8,4.2-20.6,1.7l-29.1-10.5
	c-19.9-7.2-22.3-34.4-4-44.9l49.9-28.8l-23.5-13.6c-3.8,3.4-10.1,5.3-10.1,5.3c-1.8,1.8-2.1,10.3-12.1,29.5
	c-0.5,0.9-0.9,1.7-1.4,2.4l0,0l0,0c-5.6,9.3-10.4,9-13.9,5.6l0,0c-0.2-0.2-0.3-0.3-0.5-0.5c0,0,0,0,0-0.1c-0.2-0.2-0.3-0.4-0.5-0.5
	c0,0,0-0.1-0.1-0.1c-0.1-0.2-0.3-0.4-0.4-0.6l-0.1-0.1c-0.1-0.2-0.3-0.4-0.4-0.6l-0.1-0.1c-0.1-0.2-0.2-0.4-0.4-0.6
	c0-0.1-0.1-0.1-0.1-0.2c-0.1-0.2-0.2-0.4-0.3-0.5c0-0.1-0.1-0.1-0.1-0.2c-0.1-0.2-0.2-0.4-0.3-0.5c0-0.1-0.1-0.2-0.1-0.2
	c-0.1-0.2-0.2-0.3-0.3-0.5c0-0.1-0.1-0.2-0.1-0.3c-0.1-0.2-0.2-0.3-0.2-0.5c0-0.1-0.1-0.2-0.1-0.3c-0.1-0.2-0.1-0.3-0.2-0.5
	c-0.1-0.1-0.1-0.2-0.2-0.4c-0.1-0.1-0.1-0.3-0.2-0.4c-0.1-0.1-0.1-0.3-0.2-0.4c0-0.1-0.1-0.2-0.1-0.3c-0.1-0.2-0.2-0.4-0.2-0.6v-0.1
	c-1.1-3-0.8-6.3,0-9.4c0-0.2,0.1-0.3,0.1-0.5c0.3-0.9,0.5-1.7,0.9-2.5c1.5-3.8,3.5-6.9,4.1-7.9c0,0,0-0.1,0.1-0.1
	c0-0.1,0.1-0.2,0.2-0.3c0.1-0.2,0.2-0.5,0.4-0.7c1.4-3.1,4.1-10.5,5.5-16.2l0,0c0.3-1.2,0.6-2.4,0.7-3.4l0,0
	c0.1-0.4,0.1-0.7,0.2-1.1c0-0.2,0.1-0.3,0.1-0.5s0.1-0.3,0.1-0.5c0.1-0.2,0.1-0.4,0.2-0.6c0-0.1,0.1-0.2,0.1-0.3
	c0.1-0.1,0.1-0.3,0.2-0.4l-427.7,246.8l149.4,86.3l433.3-250.2l-27.1-15.7L1055.2,1481.9z M557.9,1114.4l-433.3,250.2l108.2,62.5
	l433.3-250.2L557.9,1114.4z M1156.6,1268.9l4.2-2.4l-2.3-1.1C1158.4,1265.5,1157.6,1267.1,1156.6,1268.9z M1653.5,871.8
	l-507.1,292.6c1.1,1.4,2,2.7,2.8,3.8l0.5,0.6c0,0,6.3,6.6-0.6,31.3c-3.3,11.7-8.9,16.9-8.9,16.9l4.6,31.1c0,0,15.7,9.4,16,10.9
	s2.2,4.5,2.2,4.5l-0.9,2.2l587-338.9l12.8,7.4l-604.6,348.9c6.8,18.1,5.8,34.4,5.8,34.4c-1,0.7-2.1,1.4-3.3,2c0,0.6-0.1,1.2-0.1,1.8
	c0.1,0.1,0.1,0.2,0.1,0.3c0,2.6,10,48.5,11.9,57.1c1,0.7,2.3,1.6,3.4,2.9c2.1,1.8,23.2-6.1,23.2-6.1s3.1,2.2,5.1,7.2
	s-8.5,13.8-14.8,14.8c-6.3,0.9-12.3,7.7-19.9,9.2s-11.4-4.2-11.2-6.2c0.2-2,2.6-10.2,2.6-10.2s0.4-0.3,1-0.8
	c-0.3-0.8-0.5-1.5-0.7-2.1c-0.7,0-1.3,0-1.8,0c-4.1,0-19.3-23.8-20.3-27.9c-0.8-3.1-5-20.3-6.5-28.6c0,0-1.5-2.8-4-6.9
	c-4.7-0.2-7.9-0.7-7.9-0.7l-6.1-15.3l-7.4,4.3l-0.7,4.8c-0.6,0.1-1.3,0.1-1.9,0.1c-0.8,3.6-1.6,7-2.2,9.9
	c-3.7,16-12.6,18.5-12.6,18.5l-42.1,26.8l25.5,14.7l12.7-7.3c6.6-3.8,14.6-4.4,21.7-1.5l29.2,11.7c16.6,6.6,20.3,27.2,9.6,39.4
	l28.3,16.3l736.7-425.5L1653.5,871.8z M895.4,1309.3L462,1559.4l95.8,55.3l433.3-250.2L895.4,1309.3z M1006.5,1187.5
	c0.1-0.2,0.1-0.5,0.2-0.7C1006.6,1187,1006.5,1187.3,1006.5,1187.5z M1006,1188.5c0.1-0.2,0.2-0.4,0.3-0.6
	C1006.2,1188.1,1006.1,1188.3,1006,1188.5z M1005.8,1188.8c-0.1,0.2-0.2,0.3-0.4,0.5C1005.6,1189.1,1005.7,1189,1005.8,1188.8z
	 M686.7,1165l226.7-130.9c1.3-6.6,2.4-14.1,2.7-21.6c-0.3-0.1-0.6-0.2-0.9-0.3L898,1006c-4.3,0.3-7.3,0.4-7.3,0.4
	c-6.8,0.6-7.2-2.9-8.6-6.5c-16.2-9.1-17.1-33.3-0.1-43.1l51.8-29.9c-0.9-1.6-1.5-3.1-1.6-4.6c-0.4-5.3,0.6-18,6.8-28l-63.5,36.6
	c-0.2,0.3-0.3,0.7-0.5,1c-0.5,0.9-0.9,1.7-1.4,2.4l0,0l0,0c-5.5,9.2-10.3,9-13.8,5.6l-293.6,169.5l12.1-7L686.7,1165z M985.5,904
	L985.5,904L985.5,904z M1040.9,890.1c1,0.7,2.3,1.6,3.4,2.9c2.1,1.8,23.2-6.1,23.2-6.1s3.1,2.2,5.1,7.2c2,5.1-8.5,13.8-14.8,14.8
	c-6.3,0.9-12.3,7.7-19.9,9.2s-11.4-4.2-11.2-6.2c0.2-2,2.6-10.2,2.6-10.2s0.4-0.3,1-0.8c-0.7-1.7-1-3.4-1-3.4
	c-4.1,0-23.4-33-24.4-37.1c-0.2-0.9-0.6-2.2-0.9-3.8l-41,23.7c13.1-0.4,21.3,8.6,21.3,8.6c1.5,1.3,1.8,6.5,1.4,11.3
	c0.4,1.9,0.9,4.3,1.2,6.7c0.1,0,0.2,0.1,0.3,0.1l29.2,11.7c19.4,7.8,21.1,34.5,2.9,44.8L987,981.8c0.2,2.5,0.2,5.8-0.3,9.9
	l437.1-252.4l-108.2-62.5l-285.2,164.6C1033.4,855.8,1039.5,883.6,1040.9,890.1z M975.1,1022.2l4.6,31.1c0,0,15.7,9.4,16,10.9
	s2.2,4.5,2.2,4.5l-1.4,3.2l-3.1-1.4c0,0-4.8,9.7-6.3,9.7c-0.6,0-4-2.5-7.6-5.8c4.3,7,8.3,13.6,9.7,15.8c1.9,3,4,12.5,4.9,22.3
	l538-310.6l8.3,4.8l-103.7-59.9l-453.8,261.9C979.6,1017.9,975.1,1022.2,975.1,1022.2z M970.1,1064.6c-0.1-0.1-0.2-0.3-0.3-0.4
	C969.9,1064.3,970,1064.5,970.1,1064.6z M969.1,1070.3c-0.4,0-0.9,0-1.4,0C968.2,1070.3,968.7,1070.3,969.1,1070.3z M969.4,1070.3
	c0.4,0,0.9,0,1.3,0C970.2,1070.2,969.8,1070.3,969.4,1070.3z M960.6,1070.4c0.5,0,1.1,0,1.6,0
	C961.7,1070.4,961.2,1070.4,960.6,1070.4z M967.5,1070.3c-0.5,0-1,0-1.5,0C966.6,1070.3,967.1,1070.3,967.5,1070.3z M964.2,1070.4
	c-0.5,0-1,0-1.6,0C963.1,1070.4,963.6,1070.4,964.2,1070.4z M974.6,1069.8c-0.1-0.1-0.3-0.3-0.4-0.4
	C974.3,1069.5,974.5,1069.6,974.6,1069.8z M965.9,1070.3c-0.5,0-1,0-1.5,0C965,1070.4,965.5,1070.3,965.9,1070.3z M971.9,1070.2
	c-0.4,0-0.8,0-1.2,0C971.2,1070.2,971.6,1070.2,971.9,1070.2z M971.1,1066c-0.1-0.1-0.2-0.3-0.3-0.4
	C970.9,1065.7,971,1065.8,971.1,1066z M970.6,1065.3c-0.1-0.1-0.2-0.3-0.3-0.4C970.4,1065,970.5,1065.1,970.6,1065.3z M969.4,1063.4
	c0.1,0.2,0.2,0.4,0.4,0.6C969.6,1063.8,969.5,1063.6,969.4,1063.4z M972.5,1067.6c-0.1-0.2-0.3-0.3-0.4-0.5
	C972.2,1067.3,972.4,1067.4,972.5,1067.6z M971.4,1066.2c0.2,0.2,0.3,0.4,0.5,0.6C971.7,1066.6,971.5,1066.4,971.4,1066.2z
	 M972.8,1067.9c0.1,0.1,0.2,0.3,0.4,0.4C973.1,1068.2,972.9,1068,972.8,1067.9z M973.9,1069c-0.1-0.1-0.2-0.3-0.4-0.4
	C973.6,1068.8,973.7,1068.9,973.9,1069z M1012.2,1191.5c0,0.1,0,0.2,0,0.2C1012.2,1191.6,1012.2,1191.6,1012.2,1191.5z
	 M843.1,1184.8v0.1V1184.8z M828,1187.5c0.1,0,0.2,0,0.3,0C828.2,1187.5,828.1,1187.5,828,1187.5z M960.2,1070.4c-0.6,0-1.1,0-1.7,0
	C959.1,1070.4,959.7,1070.4,960.2,1070.4z M826.8,1187.4c0.1,0,0.1,0,0.2,0C826.9,1187.4,826.8,1187.4,826.8,1187.4z M825.6,1187.6
	c0.1,0,0.2,0,0.3,0C825.8,1187.5,825.7,1187.5,825.6,1187.6z M1012.2,1190.7c0,0.1,0,0.2,0,0.3
	C1012.2,1190.9,1012.2,1190.8,1012.2,1190.7z M808.9,1235c-0.1-0.3-0.2-0.6-0.3-0.9l-1,0.6l1.5,0.9
	C809,1235.3,809,1235.1,808.9,1235z M829.3,1187.7c0.1,0,0.2,0,0.4,0.1C829.5,1187.7,829.4,1187.7,829.3,1187.7z M823.1,1188.8
	L823.1,1188.8c-0.1,0.1-0.1,0.1-0.1,0.1C823.1,1188.8,823.1,1188.8,823.1,1188.8z M823.9,1188.2L823.9,1188.2
	C823.8,1188.2,823.8,1188.3,823.9,1188.2C823.8,1188.2,823.9,1188.2,823.9,1188.2z M908.7,1053.5c0.1,0.2,0.3,0.4,0.5,0.8
	C909,1053.9,908.8,1053.7,908.7,1053.5z M824.9,1187.8C824.8,1187.8,824.8,1187.8,824.9,1187.8c-0.1,0-0.1,0-0.1,0
	C824.8,1187.8,824.8,1187.8,824.9,1187.8z M909.3,1054.5C909.3,1054.5,909.4,1054.5,909.3,1054.5
	C909.4,1054.5,909.3,1054.5,909.3,1054.5z M795,1227.4l17.4-10.1c0.7-1.3,1.3-2.2,1.6-2.7c1.2-2.1,5.7-14.4,6.8-20.7
	c0.4-2.3,1.1-3.9,2.2-5l0.1-0.1c0.1-0.1,0.1-0.1,0.2-0.2c0.1-0.1,0.3-0.2,0.4-0.3c0.1,0,0.1-0.1,0.2-0.1c0.2-0.1,0.4-0.2,0.6-0.3
	c0.1,0,0.2-0.1,0.2-0.1s0,0,0.1,0c1.9-0.7,4.5-0.4,7.9,0.8c1.3,0.5,2.4,0.9,3.3,1.2c0.1-0.6,0.4-1.1,0.8-1.5c1.7-1.7,3.9-3.1,5.7-4
	c0.2-0.1,0.4-0.2,0.6-0.3l0,0c0.1-1.3,0.2-2.1,0.2-2.1c41.8-57.8,65.2-50.2,65.2-50.2c-7.4-60.3,0-78.5,0-78.5s0.2-0.8,0.7-2.2
	l-209.9,121.1L795,1227.4z"></path>
<path id="color_x5F_4" fill="#00CEC9" d="M142.1,731.3l79.1-136.9l79.1-45.6l79.1,45.6v102.1l-79.1,34.9V640l-78.8,46.6l-0.3,364.2
	l79.1-45.6v-91.3l-78.9-45.7l158-91.2v365.2l-79.1-45.6l-79.1,45.6l-79.1-45.6V731.3z M695.8,412.4v102.1v262.4l-79.1,137.7
	l-79.1,45.6l-79.1-45.6V549.3l79.1-136.9l79.1-45.6L695.8,412.4z M616.8,549.3V458L538,504.6l-0.3,364.2l79.1-45.6v-91.3V549.3z
	 M774.6,731.3v91.3l79.1-45.6v-91.3L774.6,731.3z M774.6,640l79.1-45.6V229.2l-79.1,45.6V640z M872.1,921.6
	c0.5,3.8,1.1,8.7,1.7,12.8c-9.4,15.7-16.6,4-19.3-3.7c-2.9-8,3.9-18.3,5.1-20.3c1.2-2.1,5.7-14.4,6.8-20.7c0.9-5.8,4.2-7.7,10.2-5.9
	c1.1,1.1,2,2.7,2.6,5.3C882.5,903.4,871,913.7,872.1,921.6z M833.7,1193.4c-0.6-2.6-1.5-4.2-2.6-5.3c-6.1-1.8-9.3,0-10.2,5.9
	c-1,6.4-5.5,18.7-6.8,20.7s-8,12.3-5.1,20.3c2.7,7.6,10,19.4,19.3,3.7c-0.5-4.1-1.1-9-1.7-12.8C825.5,1218,837,1207.7,833.7,1193.4z
	"></path>
<path id="color_x5F_3" fill="#E84393" d="M1002.7,1410.3c0.5,3.8,1.1,8.7,1.7,12.8c-9.4,15.7-16.6,4-19.3-3.7
	c-2.9-8,3.9-18.3,5.1-20.3c1.2-2.1,5.7-14.4,6.8-20.7c0.9-5.8,4.2-7.7,10.2-5.9c1.1,1.1,2,2.7,2.6,5.3
	C1013.2,1392.1,1001.6,1402.4,1002.7,1410.3z M1145.4,1163.3l3.7,5C1148.2,1166.8,1146.9,1165.1,1145.4,1163.3z M1134.1,1257.8
	l-60.5-9.6c0,0,0,0,0,0.1c0-0.1,0-0.1,0-0.1s10.3-32,7-54.1c-3.3-22.2-4.1-51.7,2.3-58.9c0,0,12.9-0.8,21.3,1s24.6,9.2,24.6,9.2
	s9.5,9.1,16.1,17c-15.5,5.6-23,49.1-23,49.1s6.5,36.7,11.9,44.6C1133.6,1256.7,1133.8,1257.3,1134.1,1257.8z"></path>
<path id="color_x5F_2" fill="#FBC02D" d="M974.9,1070.1c-7.7,0.3-46.7,1.4-54-3.7c-8.2-5.7-12.3-13.1-12.3-13.1s10.3-32,7-54.1
	c-3.3-22.2-4.1-51.7,2.3-58.9c0,0,12.9-0.8,21.3,1c8.4,1.8,24.6,9.2,24.6,9.2s15.8,15.2,20.8,23.4l-4.8-6.4
	c-15.5,5.5-23.1,49.2-23.1,49.2s6.5,36.7,11.9,44.6C968.6,1063.1,971.5,1066.6,974.9,1070.1z M943,759.7
	C943,759.7,943,759.6,943,759.7l66.4,10.4l0,0c-1.5-9-2.2-17.3-2.2-25c-6,0.6-10.8,0.6-12.8-0.5c-7.3-4.3-3.3-21.5-3.3-21.5
	s7.5-43.6,23-49.1c-6.6-7.9-16.1-17-16.1-17s-16.2-7.4-24.6-9.2c-8.4-1.8-21.3-1-21.3-1c-6.4,7.2-5.5,36.7-2.3,58.9
	C953.2,727.6,942.9,759.6,943,759.7C942.9,759.6,942.9,759.6,943,759.7z"></path>
<path id="color_x5F_1" fill="#0984E3" d="M1149.5,1103.7c-1.5,3.5-4.5,5.4-4.5,5.4c1.2,18.6-2.6,15.8-2.6,15.8
	c1.1-5.7-0.2-9.8-5.1-10.3s-3.7,11.2-3.7,11.2s0.9,10.9-10.3,10.5c-11.2-0.5-25.4-10.9-26-18.9s1.8-32.6,20.8-39.8
	c18.9-7.2,31.4,6.5,31.4,6.5C1152,1086.3,1151,1100.1,1149.5,1103.7z M1153.1,1274.4c-0.4,0.5-0.8,0.8-1,0.8
	c-1.3,0-15.4-11.7-18-17.4l-60.5-9.6c0,0-11.3,38.4-10.9,48.8c0,0,16.9,23,43.1,20.3l3-21.8l11.2,27.9c0,0,29.6,4,42.9-5.8
	C1162.8,1317.6,1164.3,1295.7,1153.1,1274.4z M1018.8,615c-1.5,3.5-4.5,5.4-4.5,5.4c1.2,18.6-2.6,15.8-2.6,15.8
	c1.1-5.7-0.2-9.8-5.1-10.3c-4.9-0.5-3.7,11.2-3.7,11.2s0.9,10.9-10.3,10.5c-11.2-0.5-25.4-10.9-26-18.9s1.8-32.6,20.8-39.8
	c18.9-7.2,31.4,6.5,31.4,6.5C1021.4,597.6,1020.4,611.5,1018.8,615z M943,759.6c0,0-11.3,38.4-10.9,48.8c0,0,16.9,23,43.1,20.3
	l3-21.8l11.2,27.9c0,0,29.6,4,42.9-5.8c0,0,0-34.5-22.8-58.8L943,759.6z M984.4,888.9c0,0-12.5-13.7-31.4-6.5s-21.4,31.8-20.8,39.8
	c0.6,8,14.8,18.5,26,18.9c11.2,0.5,10.3-10.5,10.3-10.5s-1.2-11.7,3.7-11.2s6.2,4.6,5.1,10.3c0,0,3.8,2.8,2.6-15.8
	c0,0,2.9-1.8,4.5-5.4S987,891.2,984.4,888.9z M994.6,1126.7c0-0.1-0.1-0.2-0.1-0.3c0.8-12.9-2.4-31.8-5.3-36.2
	c-1.8-2.8-7.9-12.7-13.2-21.4c0.1,0.4,0.2,0.9,0.3,1.3c0,0-47.2,2.1-55.4-3.7c-8.2-5.7-12.3-13.1-12.3-13.1l0,0c0,0-7.4,18.2,0,78.5
	c0,0-23.4-7.7-65.2,50.2c0,0-2.5,16.3,9.2,21.5l71.4-52.6c0,0,8.9-2.5,12.6-18.5c1.9-8.4,4.8-21.4,7.1-31.8
	c11.4,14.2,23.1,35.5,23.1,35.5s0.5,0.2,1.3,0.4c1.4,8.3,4.4,25.1,5.1,28.2c1,4.1,16.2,27.9,20.3,27.9s13.3,0.2,13.3-7.4
	C1006.8,1185.1,994.6,1129.5,994.6,1126.7z M1017.8,1391.1c-1.8,1.8-2.1,10.3-12.1,29.5c-0.5,0.9-0.9,1.7-1.4,2.4
	c-0.5-4.1-1.1-9-1.7-12.8c-1.1-7.8,10.5-18.2,7.1-32.5c-0.6-2.6-1.5-4.2-2.6-5.3c-4.2-1.2-7-0.8-8.6,1.5c1.9-2.6,5.2-2.9,10.3-1
	c7.2,2.7,8,2.7,8,2.7S1019.7,1389.2,1017.8,1391.1z M1203.3,1382.7c-2-5.1-5.1-7.2-5.1-7.2s-21.2,7.9-23.2,6.1l0,0
	c0.6,0.6,1.1,1.3,1.4,2c0,0.1,0.1,0.1,0.1,0.2c0.1,0.2,0.2,0.3,0.2,0.5c0,0.1,0.1,0.2,0.1,0.2c0.1,0.2,0.1,0.3,0.2,0.5
	c0,0.1,0.1,0.2,0.1,0.3c0,0.2,0.1,0.3,0.1,0.5c0,0.1,0,0.2,0,0.3c0,0.2,0,0.3,0,0.5c0,0.1,0,0.2,0,0.2c0,0.3,0,0.5-0.1,0.8
	c-1.2,5.4-11.8,6.4-14,5.2c-0.2-0.1-0.3-0.2-0.5-0.4l-0.1-0.1c-0.1-0.1-0.3-0.3-0.4-0.5c0,0,0-0.1-0.1-0.1c-0.1-0.2-0.2-0.3-0.3-0.5
	c0,0,0-0.1-0.1-0.1c-0.1-0.2-0.2-0.4-0.3-0.6c0-0.1-0.1-0.1-0.1-0.2c-0.1-0.2-0.2-0.4-0.2-0.6v-0.1l0,0c-0.6,0.5-1,0.8-1,0.8
	s-2.5,8.2-2.6,10.2c-0.2,2,3.7,7.7,11.2,6.2c7.6-1.5,13.6-8.3,19.9-9.2C1194.8,1396.6,1205.3,1387.8,1203.3,1382.7z M869.4,884
	c-0.1,0.1-0.2,0.1-0.2,0.2C869.2,884.1,869.3,884,869.4,884z M887.2,902.4c-1.8,1.8-2.1,10.3-12.1,29.5c-0.5,0.9-0.9,1.7-1.4,2.4
	c-0.5-4.1-1.1-9-1.7-12.8c-1.1-7.8,10.5-18.2,7.1-32.5c-0.6-2.6-1.5-4.2-2.6-5.3c-2.6-0.8-4.6-0.9-6.2-0.3c1.9-0.7,4.5-0.4,7.9,0.8
	c1.3,0.5,2.4,0.9,3.3,1.2C880.5,890.6,887.2,902.4,887.2,902.4z M870.3,883.5c0,0-0.1,0-0.1,0.1
	C870.2,883.6,870.2,883.6,870.3,883.5z M869.4,884c0.2-0.1,0.5-0.3,0.8-0.4C869.9,883.7,869.6,883.8,869.4,884z M868.6,884.6
	c0.2-0.2,0.4-0.3,0.6-0.4C868.9,884.3,868.7,884.4,868.6,884.6z M868.6,884.6c-0.3,0.2-0.5,0.5-0.7,0.8
	C868.1,885.1,868.3,884.8,868.6,884.6z M1057.9,908.8c-6.3,0.9-12.3,7.7-19.9,9.2s-11.4-4.2-11.2-6.2c0.2-2,2.6-10.2,2.6-10.2
	s0.4-0.3,1-0.8c0.5,1.3,1.2,2.5,2.1,3.1c2.2,1.2,12.8,0.3,14-5.2c0.5-2.2-0.6-4.3-2.1-5.9c2.1,1.8,23.2-6.1,23.2-6.1
	s3.1,2.2,5.1,7.2C1074.7,899.1,1064.2,907.9,1057.9,908.8z M1023.5,1202.5c-6.3,0.9-12.3,7.7-19.9,9.2s-11.4-4.2-11.2-6.2
	s2.6-10.2,2.6-10.2s0.4-0.3,1-0.8c0.5,1.3,1.2,2.5,2.1,3.1c2.2,1.2,12.8,0.3,14-5.2c0.5-2.2-0.6-4.3-2.1-5.9
	c2.1,1.8,23.2-6.1,23.2-6.1s3.1,2.2,5.1,7.2C1040.3,1192.8,1029.8,1201.5,1023.5,1202.5z M841.7,1206.7c-1.8,1.8-2.1,10.3-12.1,29.5
	c-0.5,0.9-0.9,1.7-1.4,2.4c-0.5-4.1-1.1-9-1.7-12.8c-1.1-7.8,10.5-18.2,7.1-32.5c-0.6-2.6-1.5-4.2-2.6-5.3c-4.2-1.2-7-0.8-8.6,1.5
	c1.9-2.6,5.2-2.9,10.3-1c7.2,2.7,8,2.7,8,2.7S843.6,1204.8,841.7,1206.7z"></path>
</svg>